<mxfile host="app.diagrams.net" agent="Mozilla/5.0 (Macintosh; Intel Mac OS X 10_15_7) AppleWebKit/537.36 (KHTML, like Gecko) Chrome/132.0.0.0 Safari/537.36" version="26.0.6">
  <diagram name="Page-1" id="rpOx7yRXrj3e4CEm29vJ">
    <mxGraphModel dx="1687" dy="845" grid="1" gridSize="10" guides="1" tooltips="1" connect="1" arrows="1" fold="1" page="1" pageScale="1" pageWidth="1500" pageHeight="550" math="1" shadow="0">
      <root>
        <mxCell id="0" />
        <mxCell id="1" parent="0" />
        <mxCell id="fb13bRqsm5XQbMN8M217-1" value="" style="pointerEvents=1;verticalLabelPosition=bottom;shadow=0;dashed=0;align=center;html=1;verticalAlign=top;shape=mxgraph.electrical.signal_sources.source;aspect=fixed;points=[[0.5,0,0],[1,0.5,0],[0.5,1,0],[0,0.5,0]];elSignalType=ac;strokeWidth=3;fillColor=#dae8fc;strokeColor=#6c8ebf;" vertex="1" parent="1">
          <mxGeometry x="99" y="357" width="60" height="60" as="geometry" />
        </mxCell>
        <mxCell id="fb13bRqsm5XQbMN8M217-2" value="" style="pointerEvents=1;verticalLabelPosition=bottom;shadow=0;dashed=0;align=center;html=1;verticalAlign=top;shape=mxgraph.electrical.signal_sources.source;aspect=fixed;points=[[0.5,0,0],[1,0.5,0],[0.5,1,0],[0,0.5,0]];elSignalType=ac;strokeWidth=3;fillColor=#1ba1e2;strokeColor=#006EAF;fontColor=#ffffff;" vertex="1" parent="1">
          <mxGeometry x="656.5" y="235" width="60" height="60" as="geometry" />
        </mxCell>
        <mxCell id="fb13bRqsm5XQbMN8M217-3" value="" style="verticalLabelPosition=bottom;shadow=0;dashed=0;align=center;html=1;verticalAlign=top;shape=mxgraph.electrical.abstract.multiplier;strokeWidth=3;fillColor=#eeeeee;strokeColor=#36393d;" vertex="1" parent="1">
          <mxGeometry x="661.5" y="80" width="50" height="50" as="geometry" />
        </mxCell>
        <mxCell id="fb13bRqsm5XQbMN8M217-4" value="Frequency&lt;div&gt;Synthesizer&lt;/div&gt;" style="text;html=1;align=center;verticalAlign=middle;resizable=0;points=[];autosize=1;strokeColor=none;fillColor=none;strokeWidth=1;fontFamily=Congenial;fontSize=20;fontStyle=1" vertex="1" parent="1">
          <mxGeometry x="626.5" y="290" width="130" height="60" as="geometry" />
        </mxCell>
        <mxCell id="fb13bRqsm5XQbMN8M217-5" value="&lt;div&gt;DDS&lt;/div&gt;" style="text;html=1;align=center;verticalAlign=middle;resizable=0;points=[];autosize=1;strokeColor=none;fillColor=none;strokeWidth=1;fontFamily=Congenial;fontSize=20;fontStyle=1" vertex="1" parent="1">
          <mxGeometry x="99" y="427" width="60" height="40" as="geometry" />
        </mxCell>
        <mxCell id="fb13bRqsm5XQbMN8M217-6" value="&lt;div&gt;SSB&lt;/div&gt;" style="text;html=1;align=center;verticalAlign=middle;resizable=0;points=[];autosize=1;strokeColor=none;fillColor=none;strokeWidth=1;fontFamily=Congenial;fontSize=20;fontStyle=1" vertex="1" parent="1">
          <mxGeometry x="656.5" y="35" width="60" height="40" as="geometry" />
        </mxCell>
        <mxCell id="fb13bRqsm5XQbMN8M217-7" value="17.0 dBm" style="text;html=1;align=center;verticalAlign=middle;resizable=0;points=[];autosize=1;strokeColor=none;fillColor=none;strokeWidth=1;fontFamily=Congenial;fontSize=20;fontStyle=1;rotation=270;" vertex="1" parent="1">
          <mxGeometry x="667.5" y="170" width="100" height="40" as="geometry" />
        </mxCell>
        <mxCell id="fb13bRqsm5XQbMN8M217-8" value="" style="endArrow=classic;html=1;rounded=0;strokeWidth=3;entryX=0.5;entryY=1;entryDx=0;entryDy=0;entryPerimeter=0;exitX=0.5;exitY=0;exitDx=0;exitDy=0;exitPerimeter=0;" edge="1" parent="1" source="fb13bRqsm5XQbMN8M217-2" target="fb13bRqsm5XQbMN8M217-3">
          <mxGeometry width="50" height="50" relative="1" as="geometry">
            <mxPoint x="976.5" y="415" as="sourcePoint" />
            <mxPoint x="896.5" y="415" as="targetPoint" />
          </mxGeometry>
        </mxCell>
        <mxCell id="fb13bRqsm5XQbMN8M217-9" value="" style="rounded=1;whiteSpace=wrap;html=1;strokeWidth=3;" vertex="1" parent="1">
          <mxGeometry x="504" y="395" width="65" height="60" as="geometry" />
        </mxCell>
        <mxCell id="fb13bRqsm5XQbMN8M217-10" value="&lt;font face=&quot;Congenial&quot;&gt;$$\phi $$&amp;nbsp;&lt;/font&gt;" style="text;html=1;align=center;verticalAlign=middle;resizable=0;points=[];autosize=1;strokeColor=none;fillColor=none;fontSize=30;fontStyle=0" vertex="1" parent="1">
          <mxGeometry x="462.5" y="417" width="150" height="50" as="geometry" />
        </mxCell>
        <mxCell id="fb13bRqsm5XQbMN8M217-11" value="&lt;div&gt;Phase&lt;/div&gt;&lt;div&gt;Shifter&lt;/div&gt;" style="text;html=1;align=center;verticalAlign=middle;resizable=0;points=[];autosize=1;strokeColor=none;fillColor=none;strokeWidth=1;fontFamily=Congenial;fontSize=20;fontStyle=1" vertex="1" parent="1">
          <mxGeometry x="491.5" y="455" width="90" height="60" as="geometry" />
        </mxCell>
        <mxCell id="fb13bRqsm5XQbMN8M217-12" value="&lt;div&gt;IF&lt;/div&gt;" style="text;html=1;align=center;verticalAlign=middle;resizable=0;points=[];autosize=1;strokeColor=none;fillColor=none;strokeWidth=1;fontFamily=Congenial;fontSize=20;fontStyle=1" vertex="1" parent="1">
          <mxGeometry x="628.5" y="65" width="40" height="40" as="geometry" />
        </mxCell>
        <mxCell id="fb13bRqsm5XQbMN8M217-13" value="&lt;div&gt;LO&lt;/div&gt;" style="text;html=1;align=center;verticalAlign=middle;resizable=0;points=[];autosize=1;strokeColor=none;fillColor=none;strokeWidth=1;fontFamily=Congenial;fontSize=20;fontStyle=1" vertex="1" parent="1">
          <mxGeometry x="636.5" y="130" width="50" height="40" as="geometry" />
        </mxCell>
        <mxCell id="fb13bRqsm5XQbMN8M217-14" value="&lt;div&gt;RF&lt;/div&gt;" style="text;html=1;align=center;verticalAlign=middle;resizable=0;points=[];autosize=1;strokeColor=none;fillColor=none;strokeWidth=1;fontFamily=Congenial;fontSize=20;fontStyle=1" vertex="1" parent="1">
          <mxGeometry x="702.5" y="65" width="50" height="40" as="geometry" />
        </mxCell>
        <mxCell id="fb13bRqsm5XQbMN8M217-15" value="" style="verticalLabelPosition=bottom;shadow=0;dashed=0;align=center;html=1;verticalAlign=top;shape=mxgraph.electrical.abstract.amplifier;strokeWidth=3;fillColor=#ffe6cc;strokeColor=#d79b00;direction=south;" vertex="1" parent="1">
          <mxGeometry x="271.505" y="279.995" width="88.89" height="80" as="geometry" />
        </mxCell>
        <mxCell id="fb13bRqsm5XQbMN8M217-16" value="" style="verticalLabelPosition=bottom;shadow=0;dashed=0;align=center;html=1;verticalAlign=top;shape=mxgraph.electrical.abstract.amplifier;strokeWidth=3;fillColor=#ffe6cc;strokeColor=#d79b00;" vertex="1" parent="1">
          <mxGeometry x="543.5" y="60.55" width="80" height="88.89" as="geometry" />
        </mxCell>
        <mxCell id="fb13bRqsm5XQbMN8M217-17" value="+24dB" style="text;html=1;align=center;verticalAlign=middle;resizable=0;points=[];autosize=1;strokeColor=none;fillColor=none;strokeWidth=1;fontFamily=Congenial;fontSize=20;fontStyle=1" vertex="1" parent="1">
          <mxGeometry x="532.5" y="149.44" width="80" height="40" as="geometry" />
        </mxCell>
        <mxCell id="fb13bRqsm5XQbMN8M217-18" value="" style="group" vertex="1" connectable="0" parent="1">
          <mxGeometry x="391.5" y="76" width="120" height="60" as="geometry" />
        </mxCell>
        <mxCell id="fb13bRqsm5XQbMN8M217-19" value="" style="group" vertex="1" connectable="0" parent="fb13bRqsm5XQbMN8M217-18">
          <mxGeometry width="120" height="60" as="geometry" />
        </mxCell>
        <mxCell id="fb13bRqsm5XQbMN8M217-20" value="" style="verticalLabelPosition=bottom;verticalAlign=top;html=1;shape=mxgraph.basic.rect;fillColor2=none;strokeWidth=3;size=20;indent=5;" vertex="1" parent="fb13bRqsm5XQbMN8M217-19">
          <mxGeometry width="120" height="60" as="geometry" />
        </mxCell>
        <mxCell id="fb13bRqsm5XQbMN8M217-21" value="" style="pointerEvents=1;verticalLabelPosition=bottom;shadow=0;dashed=0;align=center;html=1;verticalAlign=top;shape=mxgraph.electrical.resistors.attenuator;strokeWidth=3;" vertex="1" parent="fb13bRqsm5XQbMN8M217-19">
          <mxGeometry x="20" y="5" width="90" height="50" as="geometry" />
        </mxCell>
        <mxCell id="fb13bRqsm5XQbMN8M217-22" value="-20dB" style="text;html=1;align=center;verticalAlign=middle;resizable=0;points=[];autosize=1;strokeColor=none;fillColor=none;strokeWidth=1;fontFamily=Congenial;fontSize=20;fontStyle=1" vertex="1" parent="1">
          <mxGeometry x="411.5" y="148.44" width="80" height="40" as="geometry" />
        </mxCell>
        <mxCell id="fb13bRqsm5XQbMN8M217-23" value="" style="verticalLabelPosition=bottom;shadow=0;dashed=0;align=center;html=1;verticalAlign=top;shape=mxgraph.electrical.logic_gates.highpass_filter;strokeWidth=3;" vertex="1" parent="1">
          <mxGeometry x="261.5" y="67.44" width="100" height="78" as="geometry" />
        </mxCell>
        <mxCell id="fb13bRqsm5XQbMN8M217-24" value="" style="endArrow=classic;html=1;rounded=0;strokeWidth=3;entryX=0;entryY=0.5;entryDx=0;entryDy=0;entryPerimeter=0;exitX=1;exitY=0.5;exitDx=0;exitDy=0;exitPerimeter=0;" edge="1" parent="1" source="fb13bRqsm5XQbMN8M217-16" target="fb13bRqsm5XQbMN8M217-3">
          <mxGeometry width="50" height="50" relative="1" as="geometry">
            <mxPoint x="617.5" y="120" as="sourcePoint" />
            <mxPoint x="661.5" y="120.41" as="targetPoint" />
            <Array as="points" />
          </mxGeometry>
        </mxCell>
        <mxCell id="fb13bRqsm5XQbMN8M217-25" value="" style="endArrow=classic;html=1;rounded=0;strokeWidth=3;entryX=0;entryY=0.5;entryDx=0;entryDy=0;entryPerimeter=0;exitX=0.996;exitY=0.486;exitDx=0;exitDy=0;exitPerimeter=0;" edge="1" parent="1" source="fb13bRqsm5XQbMN8M217-20" target="fb13bRqsm5XQbMN8M217-16">
          <mxGeometry width="50" height="50" relative="1" as="geometry">
            <mxPoint x="504.5" y="150" as="sourcePoint" />
            <mxPoint x="542" y="149.86" as="targetPoint" />
            <Array as="points" />
          </mxGeometry>
        </mxCell>
        <mxCell id="fb13bRqsm5XQbMN8M217-26" value="" style="endArrow=classic;html=1;rounded=0;strokeWidth=3;entryX=-0.003;entryY=0.503;entryDx=0;entryDy=0;entryPerimeter=0;exitX=1;exitY=0.5;exitDx=0;exitDy=0;exitPerimeter=0;" edge="1" parent="1" source="fb13bRqsm5XQbMN8M217-23" target="fb13bRqsm5XQbMN8M217-20">
          <mxGeometry width="50" height="50" relative="1" as="geometry">
            <mxPoint x="341.5" y="201.34" as="sourcePoint" />
            <mxPoint x="386.5" y="201.34" as="targetPoint" />
            <Array as="points" />
          </mxGeometry>
        </mxCell>
        <mxCell id="fb13bRqsm5XQbMN8M217-27" value="+24dB" style="text;html=1;align=center;verticalAlign=middle;resizable=0;points=[];autosize=1;strokeColor=none;fillColor=none;strokeWidth=1;fontFamily=Congenial;fontSize=20;fontStyle=1" vertex="1" parent="1">
          <mxGeometry x="360.4" y="297.01" width="80" height="40" as="geometry" />
        </mxCell>
        <mxCell id="fb13bRqsm5XQbMN8M217-28" value="Directional&lt;div&gt;&amp;nbsp;Coupler&lt;/div&gt;" style="text;html=1;align=center;verticalAlign=middle;resizable=0;points=[];autosize=1;strokeColor=none;fillColor=none;fontSize=20;fontFamily=Congenial;fontStyle=1;rotation=270;" vertex="1" parent="1">
          <mxGeometry x="9" y="180" width="120" height="60" as="geometry" />
        </mxCell>
        <mxCell id="fb13bRqsm5XQbMN8M217-29" value="" style="ellipse;whiteSpace=wrap;html=1;aspect=fixed;strokeWidth=3;" vertex="1" parent="1">
          <mxGeometry x="121.5" y="309.51" width="15" height="15" as="geometry" />
        </mxCell>
        <mxCell id="fb13bRqsm5XQbMN8M217-30" value="" style="rounded=0;whiteSpace=wrap;html=1;strokeWidth=3;direction=south;" vertex="1" parent="1">
          <mxGeometry x="111.5" y="137.76999999999998" width="83.46" height="144" as="geometry" />
        </mxCell>
        <mxCell id="fb13bRqsm5XQbMN8M217-31" value="" style="ellipse;whiteSpace=wrap;html=1;aspect=fixed;strokeWidth=3;" vertex="1" parent="1">
          <mxGeometry x="121.5" y="100" width="15" height="15" as="geometry" />
        </mxCell>
        <mxCell id="fb13bRqsm5XQbMN8M217-32" value="" style="ellipse;whiteSpace=wrap;html=1;aspect=fixed;strokeWidth=3;" vertex="1" parent="1">
          <mxGeometry x="216.5" y="220" width="15" height="15" as="geometry" />
        </mxCell>
        <mxCell id="fb13bRqsm5XQbMN8M217-33" value="" style="endArrow=classic;html=1;rounded=0;strokeWidth=3;entryX=0.5;entryY=1;entryDx=0;entryDy=0;exitX=0.5;exitY=0;exitDx=0;exitDy=0;" edge="1" parent="1" source="fb13bRqsm5XQbMN8M217-29" target="fb13bRqsm5XQbMN8M217-31">
          <mxGeometry width="50" height="50" relative="1" as="geometry">
            <mxPoint x="521.5" y="115" as="sourcePoint" />
            <mxPoint x="553.5" y="115" as="targetPoint" />
            <Array as="points" />
          </mxGeometry>
        </mxCell>
        <mxCell id="fb13bRqsm5XQbMN8M217-34" value="" style="edgeStyle=segmentEdgeStyle;endArrow=classic;html=1;curved=0;rounded=0;endSize=8;startSize=8;entryX=0;entryY=0.5;entryDx=0;entryDy=0;" edge="1" parent="1" target="fb13bRqsm5XQbMN8M217-32">
          <mxGeometry width="50" height="50" relative="1" as="geometry">
            <mxPoint x="128.5" y="280" as="sourcePoint" />
            <mxPoint x="213.5" y="227.5" as="targetPoint" />
            <Array as="points">
              <mxPoint x="128.5" y="228" />
            </Array>
          </mxGeometry>
        </mxCell>
        <mxCell id="fb13bRqsm5XQbMN8M217-35" value="-10 dB" style="text;html=1;align=center;verticalAlign=middle;resizable=0;points=[];autosize=1;strokeColor=none;fillColor=none;fontSize=15;fontFamily=Congenial;fontStyle=1" vertex="1" parent="1">
          <mxGeometry x="131.5" y="200" width="70" height="30" as="geometry" />
        </mxCell>
        <mxCell id="fb13bRqsm5XQbMN8M217-36" value="-1 dB" style="text;html=1;align=center;verticalAlign=middle;resizable=0;points=[];autosize=1;strokeColor=none;fillColor=none;fontSize=16;fontFamily=Congenial;fontStyle=1;rotation=0;" vertex="1" parent="1">
          <mxGeometry x="121.5" y="145.44" width="60" height="30" as="geometry" />
        </mxCell>
        <mxCell id="fb13bRqsm5XQbMN8M217-37" value="" style="endArrow=classic;html=1;rounded=0;strokeWidth=3;entryX=0.5;entryY=1;entryDx=0;entryDy=0;exitX=0.5;exitY=0;exitDx=0;exitDy=0;exitPerimeter=0;" edge="1" parent="1" source="fb13bRqsm5XQbMN8M217-1" target="fb13bRqsm5XQbMN8M217-29">
          <mxGeometry width="50" height="50" relative="1" as="geometry">
            <mxPoint x="181.5" y="309.71000000000004" as="sourcePoint" />
            <mxPoint x="211.5" y="309.71000000000004" as="targetPoint" />
            <Array as="points" />
          </mxGeometry>
        </mxCell>
        <mxCell id="fb13bRqsm5XQbMN8M217-38" value="" style="endArrow=classic;html=1;rounded=0;strokeWidth=3;entryX=0;entryY=0.5;entryDx=0;entryDy=0;exitX=1;exitY=0.5;exitDx=0;exitDy=0;entryPerimeter=0;" edge="1" parent="1" source="fb13bRqsm5XQbMN8M217-31" target="fb13bRqsm5XQbMN8M217-23">
          <mxGeometry width="50" height="50" relative="1" as="geometry">
            <mxPoint x="171.5" y="112" as="sourcePoint" />
            <mxPoint x="171.5" y="80" as="targetPoint" />
            <Array as="points" />
          </mxGeometry>
        </mxCell>
        <mxCell id="fb13bRqsm5XQbMN8M217-39" value="" style="edgeStyle=segmentEdgeStyle;endArrow=classic;html=1;curved=0;rounded=0;endSize=8;startSize=8;exitX=1;exitY=0.5;exitDx=0;exitDy=0;entryX=0;entryY=0.5;entryDx=0;entryDy=0;entryPerimeter=0;fontSize=11;strokeWidth=3;" edge="1" parent="1" source="fb13bRqsm5XQbMN8M217-32" target="fb13bRqsm5XQbMN8M217-15">
          <mxGeometry width="50" height="50" relative="1" as="geometry">
            <mxPoint x="231.5" y="260" as="sourcePoint" />
            <mxPoint x="281.5" y="210" as="targetPoint" />
          </mxGeometry>
        </mxCell>
        <mxCell id="fb13bRqsm5XQbMN8M217-40" value="" style="edgeStyle=segmentEdgeStyle;endArrow=classic;html=1;curved=0;rounded=0;endSize=8;startSize=8;exitX=1;exitY=0.5;exitDx=0;exitDy=0;exitPerimeter=0;entryX=0;entryY=0.5;entryDx=0;entryDy=0;strokeWidth=3;" edge="1" parent="1" source="fb13bRqsm5XQbMN8M217-15" target="fb13bRqsm5XQbMN8M217-9">
          <mxGeometry width="50" height="50" relative="1" as="geometry">
            <mxPoint x="315.75" y="365" as="sourcePoint" />
            <mxPoint x="315.5" y="480" as="targetPoint" />
            <Array as="points">
              <mxPoint x="316.5" y="425" />
            </Array>
          </mxGeometry>
        </mxCell>
      </root>
    </mxGraphModel>
  </diagram>
</mxfile>
